<svg width="20" height="20" viewBox="0 0 20 20" fill="none" xmlns="http://www.w3.org/2000/svg">
<g clip-path="url(#clip0_350_4595)">
<path d="M3.33252 6.66671C3.33252 5.78265 3.68371 4.93481 4.30883 4.30968C4.93395 3.68456 5.7818 3.33337 6.66585 3.33337H13.3325C14.2166 3.33337 15.0644 3.68456 15.6895 4.30968C16.3147 4.93481 16.6659 5.78265 16.6659 6.66671V13.3334C16.6659 14.2174 16.3147 15.0653 15.6895 15.6904C15.0644 16.3155 14.2166 16.6667 13.3325 16.6667H6.66585C5.7818 16.6667 4.93395 16.3155 4.30883 15.6904C3.68371 15.0653 3.33252 14.2174 3.33252 13.3334V6.66671Z" stroke="#5B4D43" stroke-width="1.5" stroke-linecap="round" stroke-linejoin="round"/>
<path d="M7.49902 10C7.49902 10.663 7.76242 11.2989 8.23126 11.7678C8.7001 12.2366 9.33598 12.5 9.99902 12.5C10.6621 12.5 11.2979 12.2366 11.7668 11.7678C12.2356 11.2989 12.499 10.663 12.499 10C12.499 9.33696 12.2356 8.70107 11.7668 8.23223C11.2979 7.76339 10.6621 7.5 9.99902 7.5C9.33598 7.5 8.7001 7.76339 8.23126 8.23223C7.76242 8.70107 7.49902 9.33696 7.49902 10Z" stroke="#5B4D43" stroke-width="1.5" stroke-linecap="round" stroke-linejoin="round"/>
<path d="M13.749 6.25V6.25885" stroke="#5B4D43" stroke-width="1.5" stroke-linecap="round" stroke-linejoin="round"/>
</g>
<defs>
<clipPath id="clip0_350_4595">
<rect width="20" height="20" fill="white"/>
</clipPath>
</defs>
</svg>
