<svg width="24" height="24" viewBox="0 0 24 24" fill="none" xmlns="http://www.w3.org/2000/svg">
<g clip-path="url(#clip0_10_4877)">
<path d="M3.99902 8C3.99902 6.93913 4.42045 5.92172 5.1706 5.17157C5.92074 4.42143 6.93816 4 7.99902 4H15.999C17.0599 4 18.0773 4.42143 18.8274 5.17157C19.5776 5.92172 19.999 6.93913 19.999 8V16C19.999 17.0609 19.5776 18.0783 18.8274 18.8284C18.0773 19.5786 17.0599 20 15.999 20H7.99902C6.93816 20 5.92074 19.5786 5.1706 18.8284C4.42045 18.0783 3.99902 17.0609 3.99902 16V8Z" stroke="#2C3E50" stroke-width="1.5" stroke-linecap="round" stroke-linejoin="round"/>
<path d="M8.99902 12C8.99902 12.7956 9.31509 13.5587 9.8777 14.1213C10.4403 14.6839 11.2034 15 11.999 15C12.7947 15 13.5577 14.6839 14.1203 14.1213C14.683 13.5587 14.999 12.7956 14.999 12C14.999 11.2044 14.683 10.4413 14.1203 9.87868C13.5577 9.31607 12.7947 9 11.999 9C11.2034 9 10.4403 9.31607 9.8777 9.87868C9.31509 10.4413 8.99902 11.2044 8.99902 12Z" stroke="#2C3E50" stroke-width="1.5" stroke-linecap="round" stroke-linejoin="round"/>
<path d="M16.499 7.5V7.51063" stroke="#2C3E50" stroke-width="1.5" stroke-linecap="round" stroke-linejoin="round"/>
</g>
<defs>
<clipPath id="clip0_10_4877">
<rect width="24" height="24" fill="white"/>
</clipPath>
</defs>
</svg>
