<svg width="20" height="20" viewBox="0 0 20 20" fill="none" xmlns="http://www.w3.org/2000/svg">
<g clip-path="url(#clip0_350_4614)">
<path d="M3.3335 5.00004C3.3335 4.55801 3.50909 4.13409 3.82165 3.82153C4.13421 3.50897 4.55814 3.33337 5.00016 3.33337H15.0002C15.4422 3.33337 15.8661 3.50897 16.1787 3.82153C16.4912 4.13409 16.6668 4.55801 16.6668 5.00004V15C16.6668 15.4421 16.4912 15.866 16.1787 16.1786C15.8661 16.4911 15.4422 16.6667 15.0002 16.6667H5.00016C4.55814 16.6667 4.13421 16.4911 3.82165 16.1786C3.50909 15.866 3.3335 15.4421 3.3335 15V5.00004Z" stroke="#5B4D43" stroke-width="1.5" stroke-linecap="round" stroke-linejoin="round"/>
<path d="M6.6665 9.16663V13.3333" stroke="#5B4D43" stroke-width="1.5" stroke-linecap="round" stroke-linejoin="round"/>
<path d="M6.6665 6.66663V6.67496" stroke="#5B4D43" stroke-width="1.5" stroke-linecap="round" stroke-linejoin="round"/>
<path d="M10 13.3333V9.16663" stroke="#5B4D43" stroke-width="1.5" stroke-linecap="round" stroke-linejoin="round"/>
<path d="M13.3333 13.3333V10.8333C13.3333 10.3913 13.1577 9.96734 12.8452 9.65478C12.5326 9.34222 12.1087 9.16663 11.6667 9.16663C11.2246 9.16663 10.8007 9.34222 10.4882 9.65478C10.1756 9.96734 10 10.3913 10 10.8333" stroke="#5B4D43" stroke-width="1.5" stroke-linecap="round" stroke-linejoin="round"/>
</g>
<defs>
<clipPath id="clip0_350_4614">
<rect width="20" height="20" fill="white"/>
</clipPath>
</defs>
</svg>
