<svg width="24" height="24" viewBox="0 0 24 24" fill="none" xmlns="http://www.w3.org/2000/svg">
<g clip-path="url(#clip0_7_1791)">
<path d="M3 11C3 12.0506 3.20693 13.0909 3.60896 14.0615C4.011 15.0321 4.60028 15.914 5.34315 16.6569C6.08601 17.3997 6.96793 17.989 7.93853 18.391C8.90914 18.7931 9.94943 19 11 19C12.0506 19 13.0909 18.7931 14.0615 18.391C15.0321 17.989 15.914 17.3997 16.6569 16.6569C17.3997 15.914 17.989 15.0321 18.391 14.0615C18.7931 13.0909 19 12.0506 19 11C19 9.94943 18.7931 8.90914 18.391 7.93853C17.989 6.96793 17.3997 6.08601 16.6569 5.34315C15.914 4.60028 15.0321 4.011 14.0615 3.60896C13.0909 3.20693 12.0506 3 11 3C9.94943 3 8.90914 3.20693 7.93853 3.60896C6.96793 4.011 6.08601 4.60028 5.34315 5.34315C4.60028 6.08601 4.011 6.96793 3.60896 7.93853C3.20693 8.90914 3 9.94943 3 11Z" stroke="#37312E" stroke-width="1.5" stroke-linecap="round" stroke-linejoin="round"/>
<path d="M21 21L17 17" stroke="#37312E" stroke-width="1.5" stroke-linecap="round" stroke-linejoin="round"/>
</g>
<defs>
<clipPath id="clip0_7_1791">
<rect width="24" height="24" fill="white"/>
</clipPath>
</defs>
</svg>
