<svg width="20" height="20" viewBox="0 0 20 20" fill="none" xmlns="http://www.w3.org/2000/svg">
<g clip-path="url(#clip0_350_4602)">
<path d="M1.66748 6.66671C1.66748 5.78265 2.01867 4.93481 2.64379 4.30968C3.26891 3.68456 4.11676 3.33337 5.00081 3.33337H15.0008C15.8849 3.33337 16.7327 3.68456 17.3578 4.30968C17.983 4.93481 18.3341 5.78265 18.3341 6.66671V13.3334C18.3341 14.2174 17.983 15.0653 17.3578 15.6904C16.7327 16.3155 15.8849 16.6667 15.0008 16.6667H5.00081C4.11676 16.6667 3.26891 16.3155 2.64379 15.6904C2.01867 15.0653 1.66748 14.2174 1.66748 13.3334V6.66671Z" stroke="#5B4D43" stroke-width="1.5" stroke-linecap="round" stroke-linejoin="round"/>
<path d="M8.33398 7.5L12.5007 10L8.33398 12.5V7.5Z" stroke="#5B4D43" stroke-width="1.5" stroke-linecap="round" stroke-linejoin="round"/>
</g>
<defs>
<clipPath id="clip0_350_4602">
<rect width="20" height="20" fill="white"/>
</clipPath>
</defs>
</svg>
