<svg width="24" height="24" viewBox="0 0 24 24" fill="none" xmlns="http://www.w3.org/2000/svg">
<g clip-path="url(#clip0_10_4883)">
<path d="M2.00098 8C2.00098 6.93913 2.4224 5.92172 3.17255 5.17157C3.92269 4.42143 4.94011 4 6.00098 4H18.001C19.0618 4 20.0793 4.42143 20.8294 5.17157C21.5795 5.92172 22.001 6.93913 22.001 8V16C22.001 17.0609 21.5795 18.0783 20.8294 18.8284C20.0793 19.5786 19.0618 20 18.001 20H6.00098C4.94011 20 3.92269 19.5786 3.17255 18.8284C2.4224 18.0783 2.00098 17.0609 2.00098 16V8Z" stroke="#2C3E50" stroke-width="1.5" stroke-linecap="round" stroke-linejoin="round"/>
<path d="M10.001 9L15.001 12L10.001 15V9Z" stroke="#2C3E50" stroke-width="1.5" stroke-linecap="round" stroke-linejoin="round"/>
</g>
<defs>
<clipPath id="clip0_10_4883">
<rect width="24" height="24" fill="white"/>
</clipPath>
</defs>
</svg>
