<svg width="131" height="23" viewBox="0 0 131 23" fill="none" xmlns="http://www.w3.org/2000/svg">
<path d="M5.79183 21.9894C4.79841 21.9894 3.86122 21.8513 2.98026 21.575C2.0993 21.2988 1.37767 20.8568 0.815354 20.249C0.271785 19.6413 0 18.8678 0 17.9286C0 16.8973 0.365504 15.8844 1.09651 14.8899C1.82752 13.877 2.97089 13.0022 4.52662 12.2655C6.08236 11.5105 8.02234 11.0224 10.3466 10.8014C10.2716 10.1753 10.1216 9.68723 9.89671 9.33732C9.69053 8.98741 9.4 8.72958 9.02513 8.56383C8.65025 8.37967 8.18166 8.28759 7.61934 8.28759C6.85085 8.28759 6.07298 8.47175 5.28574 8.84008C4.49851 9.18999 3.74875 9.75169 3.03649 10.5252C2.34297 11.2803 1.74317 12.2563 1.23709 13.4534H0.477966L1.34955 8.67433C1.44327 8.6375 1.54636 8.60067 1.65882 8.56383C1.79003 8.50859 1.92124 8.46254 2.05244 8.42571C2.95214 8.09422 3.94556 7.83639 5.0327 7.65222C6.11984 7.46806 7.15075 7.37598 8.12543 7.37598C9.58744 7.37598 10.9089 7.55093 12.0897 7.90084C13.2706 8.23234 14.2172 8.79404 14.9294 9.58594C15.6604 10.3778 16.0259 11.4276 16.0259 12.7351V18.5916C16.0259 18.6652 16.0259 18.7389 16.0259 18.8126C16.0259 18.8862 16.0353 18.9599 16.054 19.0336C16.0728 19.6045 16.129 20.028 16.2227 20.3043C16.3352 20.5621 16.4945 20.691 16.7007 20.691C16.9069 20.691 17.1037 20.5713 17.2911 20.3319C17.4973 20.0741 17.7129 19.6965 17.9378 19.1993L18.6969 19.6689C18.4532 20.2767 18.1721 20.7463 17.8534 21.0778C17.5535 21.3909 17.1506 21.6211 16.6445 21.7684C16.1384 21.9157 15.4636 21.9894 14.6201 21.9894C13.683 21.9894 12.8676 21.8329 12.1741 21.5198C11.4993 21.2067 11.0213 20.7463 10.7402 20.1385C10.3091 20.7279 9.66242 21.1883 8.8002 21.5198C7.93799 21.8329 6.9352 21.9894 5.79183 21.9894ZM7.70369 20.7463C8.1348 20.7647 8.56591 20.6174 8.99701 20.3043C9.42812 19.9912 9.78425 19.5216 10.0654 18.8954C10.3653 18.2509 10.5153 17.4682 10.5153 16.5473V13.3981C10.5153 13.0851 10.5059 12.772 10.4871 12.4589C10.4684 12.1458 10.4497 11.8512 10.4309 11.5749C9.38126 11.7407 8.50967 12.1274 7.81615 12.7351C7.14138 13.3245 6.64467 14.0703 6.32602 14.9727C6.02612 15.8567 5.87617 16.8144 5.87617 17.8457C5.87617 18.8402 6.05424 19.5768 6.41037 20.0557C6.7665 20.5161 7.19761 20.7463 7.70369 20.7463Z" fill="#37312E"/>
<path d="M19.854 21.0773L20.1632 21.0497C20.6318 21.0128 21.0161 20.9392 21.316 20.8287C21.6159 20.7182 21.8595 20.5156 22.047 20.2209C22.2344 19.9263 22.3281 19.5211 22.3281 19.0054V4.80639C22.3281 4.29073 22.225 3.88557 22.0189 3.59091C21.8127 3.29625 21.5409 3.09367 21.2035 2.98317C20.8849 2.85425 20.4819 2.77138 19.9945 2.73455C19.9758 2.73455 19.9477 2.73455 19.9102 2.73455C19.8914 2.71613 19.8727 2.70692 19.854 2.70692V2.2373H27.8669V19.0054C27.8669 19.5211 27.9606 19.9263 28.1481 20.2209C28.3355 20.4972 28.5792 20.6997 28.8791 20.8287C29.179 20.9392 29.5445 21.0128 29.9756 21.0497L30.3692 21.0773V21.5745H19.854V21.0773Z" fill="#37312E"/>
<path d="M31.6305 21.0773L31.9398 21.0497C32.4083 21.0128 32.7926 20.9392 33.0925 20.8287C33.3924 20.7182 33.6361 20.5156 33.8235 20.2209C34.0109 19.9263 34.1047 19.5211 34.1047 19.0054V4.80639C34.1047 4.29073 34.0016 3.88557 33.7954 3.59091C33.5892 3.29625 33.3174 3.09367 32.98 2.98317C32.6614 2.85425 32.2584 2.77138 31.7711 2.73455C31.7523 2.73455 31.7242 2.73455 31.6867 2.73455C31.668 2.71613 31.6492 2.70692 31.6305 2.70692V2.2373H39.6434V19.0054C39.6434 19.5211 39.7372 19.9263 39.9246 20.2209C40.112 20.4972 40.3557 20.6997 40.6556 20.8287C40.9555 20.9392 41.321 21.0128 41.7521 21.0497L42.1457 21.0773V21.5745H31.6305V21.0773Z" fill="#37312E"/>
<path d="M43.2665 7.76223H55.6374V8.64621H43.2665V7.76223ZM43.2665 7.76223C44.8785 7.76223 46.1812 7.55965 47.1746 7.15448C48.168 6.74932 48.9084 6.15079 49.3957 5.35889C49.8831 4.56698 50.1736 3.52645 50.2673 2.2373H51.0545V7.76223H43.2665ZM56.4246 19.4474C55.8248 20.3682 55.1126 21.0312 54.2879 21.4364C53.4819 21.8231 52.4041 22.0165 51.0545 22.0165C50.0611 22.0165 49.1427 21.8047 48.2992 21.3812C47.4557 20.9392 46.781 20.3038 46.2749 19.4751C45.7688 18.6463 45.5158 17.6702 45.5158 16.5468V8.36997H51.0545V16.1877C51.0545 17.6058 51.2701 18.6647 51.7012 19.3646C52.1511 20.0644 52.7227 20.4143 53.4163 20.4143C53.8474 20.4143 54.2691 20.2854 54.6815 20.0275C55.0938 19.7513 55.45 19.3646 55.7499 18.8673L56.4246 19.4474Z" fill="#37312E"/>
<path d="M57.8242 21.0773L58.1616 21.0497C58.6302 20.9944 59.0051 20.9115 59.2862 20.801C59.5674 20.6905 59.8017 20.4972 59.9891 20.2209C60.1766 19.9263 60.2703 19.5211 60.2703 19.0054V4.80639C60.2703 4.29073 60.1672 3.88557 59.961 3.59091C59.7548 3.29625 59.4924 3.09367 59.1738 2.98317C58.8551 2.85425 58.4615 2.77138 57.9929 2.73455C57.9554 2.73455 57.9273 2.73455 57.9086 2.73455C57.8898 2.71613 57.8617 2.70692 57.8242 2.70692V2.2373H65.8091V9.72357C66.2777 8.93167 66.9431 8.34234 67.8053 7.9556C68.6675 7.55044 69.6141 7.34786 70.645 7.34786C71.7134 7.34786 72.7068 7.53202 73.6252 7.90035C74.5624 8.26868 75.3215 8.83958 75.9026 9.61307C76.4837 10.3681 76.7742 11.3166 76.7742 12.4584V19.0054C76.7742 19.5211 76.8491 19.9263 76.9991 20.2209C77.1678 20.4972 77.3927 20.6997 77.6739 20.8287C77.955 20.9392 78.3299 21.0128 78.7985 21.0497L79.1921 21.0773V21.5745H69.1267V21.0773C69.1829 21.0589 69.2486 21.0497 69.3235 21.0497C69.3985 21.0312 69.4641 21.022 69.5203 21.022C69.9702 20.9668 70.3076 20.8839 70.5325 20.7734C70.7574 20.6629 70.9261 20.4787 71.0386 20.2209C71.1698 19.9447 71.2354 19.5395 71.2354 19.0054V12.707C71.2354 11.8415 71.1229 11.1416 70.898 10.6076C70.6731 10.0551 70.3732 9.65911 69.9983 9.4197C69.6234 9.18029 69.2111 9.06058 68.7612 9.06058C68.1989 9.06058 67.6928 9.23554 67.243 9.58545C66.7931 9.91694 66.437 10.4326 66.1746 11.1324C65.9309 11.8322 65.8091 12.6886 65.8091 13.7015V19.0054C65.8091 19.5395 65.8747 19.9447 66.0059 20.2209C66.1371 20.4972 66.3245 20.6905 66.5682 20.801C66.8119 20.9115 67.1305 20.9852 67.5241 21.022C67.5991 21.0404 67.6647 21.0497 67.7209 21.0497C67.7772 21.0497 67.8428 21.0589 67.9177 21.0773V21.5745H57.8242V21.0773Z" fill="#37312E"/>
<path d="M80.5285 21.0778L80.8659 21.0501C81.3158 21.0133 81.6906 20.9396 81.9905 20.8291C82.3092 20.7186 82.5622 20.5161 82.7497 20.2214C82.9371 19.9267 83.0308 19.5216 83.0308 19.0059V10.3318C83.0308 9.81612 82.9277 9.41096 82.7215 9.1163C82.5154 8.82164 82.2436 8.61906 81.9062 8.50856C81.5688 8.37964 81.1658 8.29677 80.6972 8.25994C80.6597 8.25994 80.6316 8.25994 80.6129 8.25994C80.5941 8.24152 80.566 8.23231 80.5285 8.23231V7.7627H88.5696V19.0059C88.5696 19.5216 88.6633 19.9267 88.8508 20.2214C89.0382 20.4976 89.2819 20.7002 89.5818 20.8291C89.8817 20.9396 90.2472 21.0133 90.6783 21.0501L91.0438 21.0778V21.575H80.5285V21.0778Z" fill="#37312E"/>
<path d="M83.818 4.47518C84.3803 4.93559 85.0645 5.1658 85.8705 5.1658C86.6952 5.1658 87.3887 4.9448 87.951 4.50281C88.5133 4.0424 88.7945 3.41624 88.7945 2.62434C88.7945 1.7956 88.5133 1.15103 87.951 0.690615C87.3887 0.230205 86.6952 0 85.8705 0C85.0645 0 84.3803 0.230205 83.818 0.690615C83.2557 1.15103 82.9746 1.78639 82.9746 2.59671C82.9746 3.38862 83.2557 4.01477 83.818 4.47518Z" fill="#37312E"/>
<path d="M111.559 19.0057C111.559 19.5214 111.634 19.9265 111.784 20.2212C111.953 20.4975 112.178 20.7 112.459 20.8289C112.74 20.9394 113.124 21.0131 113.612 21.0499L114.005 21.0776V21.5748H103.912V21.0776C103.987 21.0592 104.052 21.0499 104.108 21.0499C104.183 21.0315 104.258 21.0223 104.333 21.0223C104.764 20.9671 105.093 20.8842 105.317 20.7737C105.561 20.6632 105.739 20.479 105.852 20.2212C105.964 19.945 106.02 19.5398 106.02 19.0057V12.8454C106.02 11.8694 105.908 11.1051 105.683 10.5526C105.477 9.98169 105.196 9.58574 104.839 9.36474C104.483 9.14374 104.071 9.03325 103.602 9.03325C103.059 9.03325 102.543 9.2082 102.056 9.55811C101.587 9.88961 101.213 10.4145 100.931 11.1327C100.65 11.8325 100.51 12.7165 100.51 13.7847V19.0057C100.51 19.5398 100.575 19.945 100.706 20.2212C100.838 20.4975 101.025 20.6908 101.269 20.8013C101.512 20.9118 101.831 20.9855 102.225 21.0223C102.3 21.0407 102.365 21.0499 102.422 21.0499C102.478 21.0499 102.543 21.0592 102.618 21.0776V21.5748H92.5248V21.0776L92.8622 21.0499C93.3308 20.9947 93.7057 20.9118 93.9868 20.8013C94.268 20.6908 94.5023 20.4975 94.6897 20.2212C94.8772 19.9265 94.9709 19.5214 94.9709 19.0057V10.3316C94.9709 9.81594 94.8678 9.41078 94.6616 9.11612C94.4554 8.82146 94.193 8.61888 93.8744 8.50838C93.5557 8.37946 93.1621 8.29659 92.6935 8.25976C92.656 8.25976 92.6279 8.25976 92.6092 8.25976C92.5904 8.24134 92.5623 8.23213 92.5248 8.23213V7.76251H100.51V9.88961C100.978 9.06087 101.653 8.43471 102.534 8.01114C103.415 7.56914 104.371 7.34814 105.402 7.34814C106.508 7.34814 107.52 7.53231 108.438 7.90064C109.375 8.26896 110.125 8.83987 110.688 9.61336C111.269 10.3869 111.559 11.3537 111.559 12.5139V19.0057Z" fill="#37312E"/>
<path d="M124.224 21.9892C122.593 21.9892 121.141 21.7037 119.866 21.1328C118.592 20.5435 117.589 19.7055 116.858 18.619C116.127 17.514 115.761 16.2341 115.761 14.7792C115.761 13.3427 116.155 12.0627 116.942 10.9393C117.748 9.79753 118.826 8.91354 120.175 8.28738C121.525 7.66122 123.025 7.34814 124.674 7.34814C125.686 7.34814 126.661 7.46785 127.598 7.70727C128.535 7.94668 129.351 8.27817 130.044 8.70175L130.859 13.3703H130.072C129.754 12.3758 129.332 11.4918 128.807 10.7183C128.282 9.94486 127.692 9.33712 127.036 8.89512C126.398 8.45313 125.752 8.23213 125.096 8.23213C124.271 8.23213 123.577 8.50838 123.015 9.06087C122.472 9.59495 122.059 10.3132 121.778 11.2156C121.516 12.0996 121.384 13.0664 121.384 14.1162C121.384 15.2764 121.563 16.3446 121.919 17.3206C122.294 18.2783 122.828 19.0426 123.521 19.6135C124.215 20.1844 125.03 20.4698 125.967 20.4698C126.961 20.4698 127.823 20.2488 128.554 19.8068C129.285 19.3648 129.857 18.7479 130.269 17.956L131 18.4532C130.4 19.6687 129.538 20.5619 128.413 21.1328C127.307 21.7037 125.911 21.9892 124.224 21.9892Z" fill="#37312E"/>
</svg>
